<?xml version="1.0" encoding="iso-8859-1"?>
<!-- Generator: Adobe Illustrator 18.1.1, SVG Export Plug-In . SVG Version: 6.00 Build 0)  -->
<svg version="1.1" id="Capa_1" xmlns="http://www.w3.org/2000/svg" xmlns:xlink="http://www.w3.org/1999/xlink" x="0px" y="0px"
	 viewBox="0 0 100 100" style="enable-background:new 0 0 100 100;" xml:space="preserve">
<g>
	<g>
		<path style="fill:#030104;" d="M78,22.888c0-10.699,0-11.745,0-11.745C78,7.198,65.464,0,50,0C34.535,0,22,7.198,22,11.143
			c0,0,0,1.045,0,11.745C22,33.586,41.384,42.425,41.384,50S22,66.413,22,77.112s0,11.746,0,11.746C22,92.802,34.535,100,50,100
			c15.464,0,28-7.198,28-11.142c0,0,0-1.046,0-11.746S58.616,57.575,58.616,50S78,33.586,78,22.888z M29.703,11.643
			c3.479-2.195,10.002-5.412,20.57-5.412c10.569,0,20.031,5.412,20.031,5.412c0.707,0.43,3.49,1.918,1.586,3.045
			c-4.193,2.483-12.392,5.099-21.89,5.099s-17.423-2.883-21.617-5.367C26.479,13.292,29.703,11.643,29.703,11.643z M52.507,50
			c0,5.965,4.979,9.807,10.255,14.933c3.854,3.745,9.129,8.873,9.129,12.179v6.641c-4.846-2.416-19.357-4.78-19.357-12.519
			c0-3.919-5.066-3.919-5.066,0c0,7.739-14.512,10.103-19.357,12.519v-6.641c0-3.307,5.275-8.434,9.129-12.179
			C42.512,59.807,47.493,55.965,47.493,50s-4.981-9.806-10.255-14.932c-3.854-3.746-9.129-8.874-9.129-12.18l-0.236-4.998
			c5.131,2.762,13.263,5.397,22.127,5.397s17.034-2.635,22.164-5.397l-0.273,4.998c0,3.307-5.275,8.435-9.129,12.18
			C57.486,40.194,52.507,44.035,52.507,50z"/>
	</g>
</g>
<g>
</g>
<g>
</g>
<g>
</g>
<g>
</g>
<g>
</g>
<g>
</g>
<g>
</g>
<g>
</g>
<g>
</g>
<g>
</g>
<g>
</g>
<g>
</g>
<g>
</g>
<g>
</g>
<g>
</g>
</svg>
