<?xml version="1.0" encoding="iso-8859-1"?>
<!-- Generator: Adobe Illustrator 19.0.0, SVG Export Plug-In . SVG Version: 6.00 Build 0)  -->
<svg version="1.1" id="Capa_1" xmlns="http://www.w3.org/2000/svg" xmlns:xlink="http://www.w3.org/1999/xlink" x="0px" y="0px"
	 viewBox="0 0 387.2 387.2" style="enable-background:new 0 0 387.2 387.2;" xml:space="preserve">
<g>
	<g>
		<path d="M371.2,83.277h-52.8c-8.8,0-16,7.2-16,16v243.2c0,8.8,7.2,16,16,16h52.8c8.8-0.8,16-7.2,16-16.8v-242.4
			C387.2,90.477,380,83.277,371.2,83.277z M370.4,342.477h-52.8v-243.2h52.8V342.477z"/>
	</g>
</g>
<g>
	<g>
		<path d="M270.4,117.677h-52.8c-8.8,0-16,6.4-16,15.2v210.4c0,8,7.2,15.2,16,15.2h52.8v-0.8c8.8,0,16-6.4,16-15.2v-209.6
			C286.4,124.877,279.2,117.677,270.4,117.677z M270.4,341.677h-52.8v-208h52.8V341.677z"/>
	</g>
</g>
<g>
	<g>
		<path d="M169.6,149.677h-52.8c-8.8,0-16,6.4-16,13.6v180.8c0,8,7.2,13.6,16,13.6h52.8c8.8,0,16-6.4,16-13.6v-180.8
			C185.6,155.277,178.4,149.677,169.6,149.677z M169.6,342.477h-52.8v-176.8h52.8V342.477z"/>
	</g>
</g>
<g>
	<g>
		<path d="M68.8,176.877H16c-8.8,0-16,5.6-16,12.8v155.2c0,7.2,7.2,12.8,16,12.8h52.8c8.8,0,16-5.6,16-12.8v-155.2
			C84.8,182.477,77.6,176.877,68.8,176.877z M68.8,342.477H16v-149.6h52.8V342.477z"/>
	</g>
</g>
<g>
	<g>
		<path d="M348.8,34.477c-0.8-4-5.6-6.4-9.6-5.6l-283.2,76l-7.2-27.2c-0.8-3.2-3.2-5.6-6.4-5.6c-3.2-0.8-6.4,0.8-8,4l-27.2,44.8
			c-0.8,1.6-1.6,4-0.8,6.4c0,0,1.6,2.4,3.2,3.2l46.4,25.6c1.6,0.8,2.4,0.8,4,0.8c1.6,0,3.2-0.8,4.8-1.6c2.4-1.6,4-5.6,2.4-8
			l-7.2-27.2l283.2-76C347.2,43.277,350.4,38.477,348.8,34.477z M24.8,120.877l13.6-22.4l8.8,34.4L24.8,120.877z"/>
	</g>
</g>
<g>
</g>
<g>
</g>
<g>
</g>
<g>
</g>
<g>
</g>
<g>
</g>
<g>
</g>
<g>
</g>
<g>
</g>
<g>
</g>
<g>
</g>
<g>
</g>
<g>
</g>
<g>
</g>
<g>
</g>
</svg>
