<?xml version="1.0" encoding="iso-8859-1"?>
<!-- Generator: Adobe Illustrator 19.0.0, SVG Export Plug-In . SVG Version: 6.00 Build 0)  -->
<svg version="1.1" id="Capa_1" xmlns="http://www.w3.org/2000/svg" xmlns:xlink="http://www.w3.org/1999/xlink" x="0px" y="0px"
	 viewBox="0 0 370.4 370.4" style="enable-background:new 0 0 370.4 370.4;" xml:space="preserve">
<g>
	<g>
		<path d="M63.6,233.6H18.8c-9.6,0-18.4,8-18.4,18.4v100c0,9.6,8,18.4,18.4,18.4h44.8c9.6,0,18.4-8,18.4-18.4V252
			C82,242.4,74,233.6,63.6,233.6z M65.2,352c0,0.8-0.8,2.4-2.4,2.4H18c-0.8,0-2.4-0.8-2.4-2.4V252c0-0.8,0.8-2.4,2.4-2.4h44.8
			c1.6,0,2.4,0.8,2.4,2.4V352z"/>
	</g>
</g>
<g>
	<g>
		<path d="M159.6,127.2h-44.8v0c-9.6,0-18.4,8-18.4,18.4v205.6c0,9.6,8,18.4,18.4,18.4h44.8c9.6,0,18.4-8,18.4-18.4V145.6
			C178,136,170,127.2,159.6,127.2z M161.2,351.2c0,0.8-0.8,2.4-2.4,2.4H114c-0.8,0-2.4-0.8-2.4-2.4V145.6c0-0.8,0.8-2.4,2.4-2.4
			h44.8c1.6,0,2.4,0.8,2.4,2.4V351.2z"/>
	</g>
</g>
<g>
	<g>
		<path d="M255.6,180h-44.8v0.8c-9.6,0-18.4,8-18.4,18.4V352c0,9.6,8,18.4,18.4,18.4h44.8c9.6,0,18.4-8,18.4-18.4V198.4
			C274,188.8,266,180,255.6,180z M258,351.2c0,0.8-0.8,2.4-2.4,2.4h-44.8c-0.8,0-2.4-0.8-2.4-2.4V198.4c0-0.8,0.8-2.4,2.4-2.4h44.8
			c1.6,0.8,2.4,1.6,2.4,2.4V351.2z"/>
	</g>
</g>
<g>
	<g>
		<path d="M351.6,83.2h-44.8c-9.6,0-18.4,8-18.4,18.4v249.6c0.8,10.4,8.8,18.4,18.4,18.4h44.8c9.6,0,18.4-8,18.4-18.4V101.6
			C370,92,362,83.2,351.6,83.2z M354.8,351.2c0,0.8-0.8,2.4-2.4,2.4h-44.8c-0.8,0-2.4-0.8-2.4-2.4V101.6c0-0.8,0.8-2.4,2.4-2.4h44.8
			c0.8,0,2.4,0.8,2.4,2.4V351.2z"/>
	</g>
</g>
<g>
	<g>
		<path d="M329.2,0C318.8,0,310,8.8,310,19.2c0,2.4,0.8,4,0.8,6.4l-69.6,64.8c-2.4-1.6-5.6-1.6-8-1.6c-4.8,0-8.8,1.6-12,4
			l-65.6-35.2c0-0.8,0-0.8,0-1.6c0-10.4-8.8-19.2-19.2-19.2c-10.4,0-19.2,8.8-19.2,19.2c0,3.2,0.8,5.6,1.6,8l-73.6,88
			c-1.6-0.8-3.2-0.8-4.8-0.8c-10.4,0-19.2,8.8-19.2,19.2c0,10.4,8.8,19.2,19.2,19.2c10.4,0,19.2-8.8,19.2-19.2c0-3.2-0.8-5.6-1.6-8
			l73.6-88c1.6,0.8,3.2,0.8,4.8,0.8c4.8,0,8.8-1.6,12-4l65.6,35.2c0,0.8,0,0.8,0,1.6c0,10.4,8.8,19.2,19.2,19.2s19.2-8.8,19.2-19.2
			c0-2.4-0.8-4-0.8-6.4L322,36.8c2.4,1.6,4.8,1.6,7.2,1.6c10.4,0,19.2-8.8,19.2-19.2C348.4,8.8,339.6,0,329.2,0z"/>
	</g>
</g>
<g>
</g>
<g>
</g>
<g>
</g>
<g>
</g>
<g>
</g>
<g>
</g>
<g>
</g>
<g>
</g>
<g>
</g>
<g>
</g>
<g>
</g>
<g>
</g>
<g>
</g>
<g>
</g>
<g>
</g>
</svg>
